<?xml version="1.0" standalone="no"?>
<!DOCTYPE svg PUBLIC "-//W3C//DTD SVG 20010904//EN"
 "http://www.w3.org/TR/2001/REC-SVG-20010904/DTD/svg10.dtd">
<svg version="1.0" xmlns="http://www.w3.org/2000/svg"
 width="920.000000pt" height="808.000000pt" viewBox="0 0 920.000000 808.000000"
 preserveAspectRatio="xMidYMid meet">

<g transform="translate(0.000000,808.000000) scale(0.100000,-0.100000)"
fill="#000000" stroke="none">
<path d="M4320 7370 c-63 -4 -185 -19 -270 -33 -1423 -234 -2551 -1374 -2764
-2792 -152 -1011 155 -2013 846 -2765 518 -563 1198 -925 1968 -1046 164 -26
195 -28 490 -28 294 1 326 2 485 28 732 118 1352 433 1870 951 204 204 345
382 489 615 655 1061 655 2419 0 3480 -144 234 -285 411 -489 615 -516 516
-1140 834 -1855 946 -153 24 -226 29 -420 33 -129 2 -287 1 -350 -4z m700
-236 c480 -68 939 -245 1327 -511 166 -114 275 -203 426 -352 484 -475 792
-1078 903 -1766 25 -156 27 -193 28 -460 0 -325 -13 -450 -80 -735 -257 -1102
-1118 -1986 -2224 -2285 -1432 -386 -2940 286 -3600 1604 -468 935 -447 2021
56 2934 135 245 297 460 503 670 687 699 1693 1040 2661 901z"/>
<path d="M4030 6354 l0 -526 413 4 c455 5 468 7 563 71 73 49 108 123 108 231
0 65 -5 91 -23 129 -29 60 -73 103 -130 128 l-43 19 49 37 c58 42 82 79 90
139 15 109 -31 203 -119 246 -84 41 -167 48 -552 48 l-356 0 0 -526z m725 322
c40 -17 55 -42 55 -94 0 -50 -29 -88 -78 -102 -20 -5 -128 -10 -239 -10 l-203
0 0 110 0 110 215 0 c163 0 224 -3 250 -14z m40 -396 c84 -43 72 -206 -18
-241 -21 -8 -110 -14 -259 -17 l-228 -4 0 142 0 141 238 -3 c187 -2 243 -6
267 -18z"/>
<path d="M4332 5528 c-55 -112 -170 -346 -255 -520 l-156 -318 152 0 152 0 47
100 46 100 257 0 256 0 46 -100 46 -100 149 0 c81 0 148 4 148 8 0 5 -112 238
-250 518 l-250 509 -144 3 -145 3 -99 -203z m333 -248 c49 -105 86 -192 83
-195 -3 -3 -84 -4 -181 -3 l-175 3 65 140 c35 77 75 164 88 193 13 28 26 52
28 52 2 0 44 -86 92 -190z"/>
<path d="M1760 4055 l0 -527 413 4 c447 5 469 7 559 64 84 53 127 158 113 278
-11 102 -65 178 -154 217 l-43 19 48 33 c65 43 94 100 94 185 0 117 -62 193
-186 228 -49 14 -126 18 -451 21 l-393 5 0 -527z m725 321 c18 -8 38 -23 44
-34 14 -27 14 -84 0 -116 -23 -49 -57 -56 -293 -56 l-216 0 0 110 0 110 215 0
c163 0 224 -3 250 -14z m16 -388 c62 -18 74 -39 74 -123 0 -63 -3 -77 -23 -98
-38 -40 -83 -47 -316 -47 l-216 0 0 140 0 140 221 0 c139 0 236 -4 260 -12z"/>
<path d="M3120 4063 c-139 -285 -256 -521 -258 -525 -2 -5 66 -8 150 -8 l154
0 46 103 45 102 257 3 257 2 49 -105 49 -105 151 0 c82 0 150 2 150 5 0 2
-115 237 -255 522 l-255 518 -143 3 -142 3 -255 -518z m490 61 c47 -102 87
-190 88 -195 2 -5 -71 -9 -177 -9 -104 0 -181 4 -181 9 0 8 138 320 161 364 6
9 13 17 17 17 4 0 45 -84 92 -186z"/>
<path d="M3940 4571 c0 -4 110 -151 245 -326 l245 -318 0 -199 0 -198 135 0
135 0 0 201 0 200 243 315 c133 173 244 319 245 324 2 6 -60 10 -160 10 l-164
0 -148 -200 c-81 -110 -151 -200 -154 -200 -4 1 -72 91 -152 200 l-145 199
-162 1 c-90 0 -163 -4 -163 -9z"/>
<path d="M5230 4055 l0 -525 505 0 505 0 0 100 0 100 -370 0 -370 0 0 120 0
120 345 0 345 0 0 95 0 95 -345 0 -345 0 0 110 0 110 355 0 355 0 0 100 0 100
-490 0 -490 0 0 -525z"/>
<path d="M6390 4056 l0 -526 135 0 135 0 0 210 0 210 143 0 142 -1 137 -209
137 -210 156 0 c99 0 155 4 155 10 0 6 -67 100 -149 209 l-149 198 52 18 c75
27 133 72 167 132 40 70 52 206 24 279 -22 58 -76 119 -129 146 -94 48 -119
51 -548 55 l-408 5 0 -526z m761 320 c57 -24 74 -50 74 -116 0 -115 -40 -130
-354 -130 l-221 0 0 130 0 130 234 0 c179 0 241 -3 267 -14z"/>
<path d="M4080 2910 l0 -520 540 0 540 0 0 100 0 100 -405 0 -405 0 0 120 0
120 380 0 380 0 0 95 0 95 -380 0 -380 0 0 110 0 110 390 0 390 0 0 95 0 95
-525 0 -525 0 0 -520z"/>
<path d="M4080 1760 l0 -520 135 0 135 0 0 205 0 205 143 0 142 0 134 -205
134 -205 158 0 c88 0 159 3 159 7 0 3 -65 93 -145 200 -80 106 -145 197 -145
202 0 4 21 14 46 21 62 18 133 76 166 136 20 37 29 71 34 131 8 96 -10 165
-58 225 -34 44 -129 93 -207 108 -30 6 -224 10 -442 10 l-389 0 0 -520z m763
316 c53 -22 71 -50 71 -111 0 -39 -5 -60 -19 -76 -40 -44 -70 -49 -320 -49
l-235 0 0 125 0 125 235 0 c176 0 244 -3 268 -14z"/>
</g>
</svg>