<?xml version="1.0" standalone="no"?>
<!DOCTYPE svg PUBLIC "-//W3C//DTD SVG 20010904//EN"
 "http://www.w3.org/TR/2001/REC-SVG-20010904/DTD/svg10.dtd">
<svg version="1.0" xmlns="http://www.w3.org/2000/svg"
 width="980.000000pt" height="490.000000pt" viewBox="0 0 980.000000 490.000000"
 preserveAspectRatio="xMidYMid meet">

<g transform="translate(0.000000,490.000000) scale(0.100000,-0.100000)"
fill="#000000" stroke="none">
<path d="M220 2998 l0 -203 51 4 c42 2 49 6 44 20 -5 14 -5 14 9 1 13 -13 29
-14 89 -8 39 5 101 11 137 14 36 3 72 7 80 10 8 4 31 8 50 10 49 4 97 12 150
23 25 5 70 13 100 16 30 3 60 11 66 16 7 5 16 9 20 7 11 -3 78 10 119 22 17 5
57 17 90 26 33 9 69 19 80 24 49 18 221 70 233 70 6 0 12 3 12 8 0 4 35 20 78
35 103 37 108 40 88 60 -9 8 -16 23 -16 31 0 28 -45 19 -58 -11 l-12 -28 4 28
c2 18 -1 27 -10 27 -8 0 -14 -6 -14 -12 0 -8 -3 -9 -8 -3 -10 14 -75 15 -84 1
-5 -8 -8 -8 -8 0 0 7 -23 11 -60 11 -47 0 -60 -3 -56 -14 3 -7 1 -13 -4 -13
-6 0 -10 7 -10 15 0 8 -4 15 -10 15 -5 0 -10 -6 -10 -12 0 -9 -4 -8 -10 2 -9
13 -11 13 -20 0 -5 -8 -10 -10 -10 -4 0 6 -11 12 -25 12 -14 0 -25 -6 -25 -12
0 -6 -5 -4 -10 4 -8 12 -11 13 -19 1 -6 -9 -10 -10 -16 -2 -5 9 -10 9 -21 0
-11 -9 -14 -9 -14 1 0 10 -3 10 -14 1 -11 -9 -15 -9 -20 1 -5 10 -7 10 -12 -1
-5 -11 -8 -11 -15 0 -8 12 -11 11 -19 -1 -5 -8 -10 -10 -10 -3 0 12 -74 12
-86 0 -4 -4 -2 -7 4 -7 7 0 12 -6 12 -12 -1 -7 -10 -2 -22 12 -15 18 -22 21
-26 11 -4 -11 -6 -11 -13 0 -8 12 -11 11 -19 -1 -5 -8 -10 -10 -10 -4 0 6 -11
12 -25 12 -14 0 -25 -6 -25 -12 0 -6 -4 -5 -9 3 -8 12 -12 12 -25 2 -11 -9
-16 -10 -16 -2 0 19 -16 12 -29 -11 -10 -22 -11 -22 -6 -2 5 18 1 22 -20 22
-14 0 -25 -6 -25 -12 0 -6 -5 -4 -10 4 -9 13 -11 13 -20 0 -5 -8 -10 -10 -10
-5 0 15 -233 15 -242 1 -5 -7 -8 -7 -8 2 0 7 -13 12 -30 12 -17 0 -30 -5 -30
-12 0 -10 -2 -10 -8 -1 -4 7 -25 12 -46 11 -31 -1 -37 -4 -33 -20 3 -10 1 -16
-4 -12 -5 3 -9 12 -9 20 0 24 -55 18 -69 -8 l-11 -23 6 23 c3 12 1 22 -5 22
-8 0 -11 -66 -11 -202z m407 160 c-3 -8 -6 -5 -6 6 -1 11 2 17 5 13 3 -3 4
-12 1 -19z m294 -9 c-5 -13 -10 -19 -10 -12 -1 15 10 45 15 40 3 -2 0 -15 -5
-28z m-645 7 c8 -8 14 -20 14 -27 0 -7 -6 -4 -14 7 -11 14 -18 16 -26 8 -8 -8
-7 -15 4 -27 15 -14 15 -16 -2 -14 -19 1 -21 17 -7 50 9 21 12 21 31 3z m967
-1 c-3 -9 -8 -14 -10 -11 -3 3 -2 9 2 15 9 16 15 13 8 -4z m-651 -17 c-9 -9
-15 -9 -24 1 -11 10 -10 11 5 6 10 -5 17 -2 17 6 0 7 3 9 7 6 4 -4 1 -13 -5
-19z m533 -11 c-20 -31 -6 -70 23 -61 13 5 14 4 3 -4 -18 -13 -41 -5 -41 14 0
8 -5 14 -12 14 -9 0 -9 3 0 12 7 7 12 19 12 28 -1 10 -8 6 -25 -13 -14 -15
-25 -24 -25 -18 0 5 5 13 11 16 6 4 8 13 6 20 -4 8 4 11 24 9 17 -2 29 1 29 8
0 6 3 9 6 6 3 -4 -2 -18 -11 -31z m259 9 c-3 -9 -10 -16 -15 -16 -5 0 -4 9 3
20 14 22 21 20 12 -4z m-1064 -17 c-6 -10 -13 -19 -16 -19 -2 0 0 8 5 19 6 10
7 22 3 26 -4 5 -1 5 6 1 9 -5 9 -12 2 -27z m222 -31 c2 -21 1 -35 -3 -30 -7 7
-13 67 -9 87 3 13 8 -10 12 -57z m325 28 c-25 -38 -35 -41 -16 -4 10 19 27 37
36 38 1 0 -8 -15 -20 -34z m109 6 c-2 -34 -31 -78 -41 -63 -3 6 -1 11 4 11 6
0 11 7 11 15 0 8 5 15 11 15 5 0 9 8 8 18 -2 21 0 32 5 32 2 0 3 -13 2 -28z
m287 13 c-3 -9 -8 -14 -10 -11 -3 3 -2 9 2 15 9 16 15 13 8 -4z m28 -12 c-12
-20 -14 -14 -5 12 4 9 9 14 11 11 3 -2 0 -13 -6 -23z m59 13 c-7 -7 -13 -7
-20 0 -6 6 -3 10 10 10 13 0 16 -4 10 -10z m160 0 c-7 -7 -13 -7 -20 0 -6 6
-3 10 10 10 13 0 16 -4 10 -10z m-1030 -28 c0 -5 -7 -3 -15 6 -8 8 -15 18 -15
22 0 3 7 1 15 -6 8 -7 15 -17 15 -22z m131 5 c-12 -20 -14 -14 -5 12 4 9 9 14
11 11 3 -2 0 -13 -6 -23z m867 2 c-3 -3 -9 2 -12 12 -6 14 -5 15 5 6 7 -7 10
-15 7 -18z m-1103 5 c3 -5 1 -10 -4 -10 -6 0 -11 5 -11 10 0 6 2 10 4 10 3 0
8 -4 11 -10z m375 2 c0 -5 -7 -17 -16 -28 -8 -10 -14 -14 -11 -9 2 6 7 18 10
28 7 17 17 23 17 9z m292 -14 c-7 -7 -12 -8 -12 -2 0 14 12 26 19 19 2 -3 -1
-11 -7 -17z m495 -2 c-13 -14 -16 -14 -21 0 -3 8 -2 12 3 9 5 -3 13 0 16 6 4
5 9 8 12 5 3 -3 -1 -12 -10 -20z m-1027 4 c0 -5 -4 -10 -10 -10 -5 0 -10 5
-10 10 0 6 5 10 10 10 6 0 10 -4 10 -10z m64 -40 c-5 -5 -9 4 -10 23 -1 30 -1
30 9 9 6 -14 7 -26 1 -32z m242 24 c-4 -9 -9 -15 -11 -12 -3 3 -3 13 1 22 4 9
9 15 11 12 3 -3 3 -13 -1 -22z m108 0 c-13 -19 -14 -28 -5 -37 6 -6 11 -16 11
-21 0 -6 -5 -3 -11 7 -5 9 -15 17 -21 17 -6 0 -7 -8 -3 -17 5 -14 3 -15 -6 -6
-9 9 -5 20 16 47 32 42 43 48 19 10z m96 22 c0 -3 -4 -8 -10 -11 -5 -3 -10 -1
-10 4 0 6 5 11 10 11 6 0 10 -2 10 -4z m144 -12 c9 -24 7 -27 -9 -10 -17 17
-19 26 -6 26 5 0 12 -7 15 -16z m42 -22 c-4 -3 -11 0 -16 8 -15 24 -11 33 6
15 9 -9 13 -19 10 -23z m-770 12 c-3 -8 1 -28 9 -44 16 -32 12 -55 -13 -65
-13 -5 -13 -3 2 14 18 19 17 21 -3 50 -19 26 -20 33 -9 45 17 20 22 20 14 0z
m884 6 c0 -5 -4 -10 -10 -10 -5 0 -10 5 -10 10 0 6 5 10 10 10 6 0 10 -4 10
-10z m44 -6 c3 -8 2 -12 -4 -9 -6 3 -10 10 -10 16 0 14 7 11 14 -7z m62 -11
c-10 -10 -19 5 -10 18 6 11 8 11 12 0 2 -7 1 -15 -2 -18z m-1079 -15 c-3 -7
-5 -2 -5 12 0 14 2 19 5 13 2 -7 2 -19 0 -25z m937 16 c3 -8 2 -12 -4 -9 -6 3
-10 10 -10 16 0 14 7 11 14 -7z m-1023 -24 c-3 -3 -9 -9 -12 -13 -4 -4 -6 3
-6 17 0 19 2 22 12 13 7 -7 10 -14 6 -17z m209 18 c0 -9 4 -8 10 2 6 9 10 10
10 3 0 -19 -17 -24 -30 -8 -9 10 -9 15 -1 15 6 0 11 -6 11 -12z m571 -11 c-10
-9 -11 -8 -5 6 3 10 9 15 12 12 3 -3 0 -11 -7 -18z m425 -14 c-7 -7 -26 7 -26
19 0 6 6 6 15 -2 9 -7 13 -15 11 -17z m-1156 7 c0 -5 -4 -10 -10 -10 -5 0 -10
5 -10 10 0 6 5 10 10 10 6 0 10 -4 10 -10z m325 -10 c-10 -11 -21 -18 -23 -15
-3 3 3 12 14 20 27 20 30 18 9 -5z m195 10 c0 -5 -5 -10 -11 -10 -5 0 -7 5 -4
10 3 6 8 10 11 10 2 0 4 -4 4 -10z m28 -10 c-7 -10 -14 -17 -17 -15 -4 4 18
35 25 35 2 0 -1 -9 -8 -20z m421 -6 c-6 -8 -8 -26 -5 -41 5 -22 2 -20 -14 11
-11 22 -18 42 -15 44 3 3 5 0 5 -6 0 -7 5 -12 11 -12 6 0 9 7 6 14 -4 10 -1
13 9 9 11 -4 12 -9 3 -19z m51 16 c0 -5 -2 -10 -4 -10 -3 0 -8 5 -11 10 -3 6
-1 10 4 10 6 0 11 -4 11 -10z m80 0 c0 -5 -5 -10 -11 -10 -5 0 -7 5 -4 10 3 6
8 10 11 10 2 0 4 -4 4 -10z m-902 -32 c-13 -35 -15 -35 -14 0 1 16 6 29 12 29
9 0 9 -8 2 -29z m78 5 c-10 -10 -19 5 -10 18 6 11 8 11 12 0 2 -7 1 -15 -2
-18z m782 -2 c-7 -9 -13 -17 -14 -19 -1 -2 -1 8 0 21 0 15 6 23 14 20 10 -4
10 -9 0 -22z m-961 -18 c-3 -10 -5 -4 -5 12 0 17 2 24 5 18 2 -7 2 -21 0 -30z
m765 15 c-7 -7 -12 -8 -12 -2 0 14 12 26 19 19 2 -3 -1 -11 -7 -17z m-795 -20
c-3 -7 -5 -2 -5 12 0 14 2 19 5 13 2 -7 2 -19 0 -25z m293 10 c0 -16 -3 -19
-11 -11 -6 6 -8 16 -5 22 11 17 16 13 16 -11z m95 12 c3 -5 1 -10 -4 -10 -6 0
-11 5 -11 10 0 6 2 10 4 10 3 0 8 -4 11 -10z m-125 -20 c0 -5 -5 -10 -11 -10
-5 0 -7 5 -4 10 3 6 8 10 11 10 2 0 4 -4 4 -10z m206 -34 c-8 -6 -16 -18 -19
-26 -4 -12 -6 -12 -6 2 -1 9 4 20 9 23 7 4 6 14 -1 28 -12 22 -12 22 9 3 18
-16 19 -21 8 -30z m-526 19 c0 -8 -2 -15 -4 -15 -2 0 -6 7 -10 15 -3 8 -1 15
4 15 6 0 10 -7 10 -15z m430 5 c0 -5 -5 -10 -11 -10 -5 0 -7 5 -4 10 3 6 8 10
11 10 2 0 4 -4 4 -10z m140 0 c0 -5 -5 -10 -11 -10 -5 0 -7 5 -4 10 3 6 8 10
11 10 2 0 4 -4 4 -10z m187 -12 c-3 -8 -6 -5 -6 6 -1 11 2 17 5 13 3 -3 4 -12
1 -19z m37 -4 c3 -8 2 -12 -4 -9 -6 3 -10 10 -10 16 0 14 7 11 14 -7z m131 -3
c-3 -6 -11 -11 -16 -11 -5 0 -4 6 3 14 14 16 24 13 13 -3z m-870 -35 c-32 -42
-35 -44 -27 -14 4 17 2 20 -11 15 -11 -4 -14 -2 -11 8 3 7 12 16 19 19 9 3 12
0 8 -10 -8 -21 15 -17 29 6 7 10 14 17 16 15 2 -2 -8 -20 -23 -39z m191 -3 c0
-27 -1 -40 -3 -30 -5 19 -23 24 -23 5 0 -6 -3 -8 -7 -5 -3 4 1 15 11 26 9 10
16 22 15 27 -2 11 0 24 4 24 1 0 3 -21 3 -47z m243 34 c-9 -7 -18 -19 -22 -27
-4 -12 -6 -12 -6 2 -1 9 -4 18 -8 21 -5 2 -3 3 3 1 6 -1 17 2 25 7 21 13 27
10 8 -4z m115 2 c-3 -6 -2 -14 3 -18 6 -3 7 -15 2 -26 -7 -18 -8 -18 -8 4 -1
24 -1 24 -23 5 -20 -18 -20 -17 2 14 22 30 39 45 24 21z m67 -3 c7 4 4 -7 -7
-25 -10 -17 -22 -31 -27 -31 -5 0 -4 7 4 16 11 13 10 19 -1 37 -12 20 -12 21
3 9 9 -8 21 -10 28 -6z m194 -7 c-10 -15 -25 -10 -19 6 4 8 10 12 15 9 5 -3 7
-10 4 -15z m-318 -21 c-3 -8 -6 -5 -6 6 -1 11 2 17 5 13 3 -3 4 -12 1 -19z
m163 18 c0 -3 -4 -8 -10 -11 -5 -3 -10 -1 -10 4 0 6 5 11 10 11 6 0 10 -2 10
-4z m-629 -29 c-10 -9 -11 -8 -5 6 3 10 9 15 12 12 3 -3 0 -11 -7 -18z m112 8
c-3 -9 -8 -14 -10 -11 -3 3 -2 9 2 15 9 16 15 13 8 -4z m122 3 c-2 -7 2 -22
10 -32 15 -20 15 -20 30 0 8 10 15 14 15 8 0 -17 -27 -37 -40 -29 -5 3 -10 2
-10 -4 0 -5 7 -12 15 -14 11 -4 10 -4 -2 -3 -11 1 -18 10 -19 25 -1 13 -8 27
-15 32 -12 8 -12 11 1 19 19 13 20 12 15 -2z m105 -17 c-6 -12 -8 -27 -4 -34
5 -9 4 -9 -5 -1 -9 8 -9 17 0 38 7 14 14 24 16 22 3 -2 0 -14 -7 -25z m304 14
c-4 -8 -11 -15 -16 -15 -6 0 -5 6 2 15 7 8 14 15 16 15 2 0 1 -7 -2 -15z
m-234 -13 c0 -5 -11 -22 -25 -38 -31 -36 -33 -23 -2 16 24 32 27 34 27 22z
m200 4 c0 -3 -4 -8 -10 -11 -5 -3 -10 -1 -10 4 0 6 5 11 10 11 6 0 10 -2 10
-4z m-693 -38 c-3 -7 -5 -2 -5 12 0 14 2 19 5 13 2 -7 2 -19 0 -25z m463 28
c0 -2 -7 -9 -15 -16 -13 -11 -14 -10 -9 4 5 14 24 23 24 12z m-315 -26 c3 -5
1 -10 -4 -10 -6 0 -11 5 -11 10 0 6 2 10 4 10 3 0 8 -4 11 -10z m470 -8 c-3
-3 -11 0 -18 7 -9 10 -8 11 6 5 10 -3 15 -9 12 -12z m-661 -18 c3 -8 2 -12 -4
-9 -6 3 -10 10 -10 16 0 14 7 11 14 -7z m256 6 c0 -5 -2 -10 -4 -10 -3 0 -8 5
-11 10 -3 6 -1 10 4 10 6 0 11 -4 11 -10z m36 -17 c-4 -11 -16 -18 -33 -19
l-28 -1 28 10 c15 6 27 17 27 26 0 8 3 12 6 8 3 -3 3 -14 0 -24z m-176 7 c0
-5 -4 -10 -10 -10 -5 0 -10 5 -10 10 0 6 5 10 10 10 6 0 10 -4 10 -10z m110
-14 c0 -3 -4 -8 -10 -11 -5 -3 -10 -1 -10 4 0 6 5 11 10 11 6 0 10 -2 10 -4z
m-80 -10 c0 -3 -4 -8 -10 -11 -5 -3 -10 -1 -10 4 0 6 5 11 10 11 6 0 10 -2 10
-4z"/>
<path d="M1690 3056 c-27 -14 -102 -49 -110 -51 -3 0 -16 -5 -29 -9 -18 -6
-21 -10 -10 -17 9 -6 4 -7 -14 -3 -16 4 -38 2 -50 -3 -12 -6 -33 -15 -47 -21
-39 -17 -314 -102 -330 -102 -7 0 -25 -10 -38 -22 -14 -13 -22 -17 -18 -10 9
15 -5 15 -59 1 -22 -5 -47 -11 -55 -13 -8 -2 -14 -11 -14 -20 2 -13 -1 -14
-12 -5 -14 12 -24 11 -164 -16 -121 -23 -211 -36 -237 -36 -28 1 -31 -24 -3
-27 11 -1 29 -3 40 -4 22 -2 26 -13 10 -23 -6 -3 -17 1 -26 9 -9 9 -27 14 -45
12 -24 -3 -27 -1 -18 11 10 12 2 13 -52 7 -35 -4 -78 -7 -96 -8 -18 -1 -35 -5
-39 -9 -4 -4 -18 -4 -30 -1 -24 6 -24 5 -24 -76 0 -73 2 -81 18 -76 17 6 67
16 167 36 138 27 224 47 275 64 25 8 65 18 90 22 25 4 50 10 55 14 6 4 24 10
40 14 88 19 174 50 163 59 -8 5 -5 6 10 2 20 -6 89 12 132 35 9 4 31 11 50 15
19 4 37 10 40 14 3 3 32 15 65 25 80 26 179 68 183 78 2 4 10 8 17 8 8 0 26 5
42 12 15 6 31 11 36 10 4 -1 7 2 7 6 0 4 23 16 51 26 53 19 63 31 57 65 -3 18
-5 19 -28 7z m-300 -150 c0 -11 -19 -15 -25 -6 -3 5 1 10 9 10 9 0 16 -2 16
-4z m-105 -36 c-3 -5 -11 -10 -16 -10 -6 0 -7 5 -4 10 3 6 11 10 16 10 6 0 7
-4 4 -10z m-102 -27 c-7 -2 -19 -2 -25 0 -7 3 -2 5 12 5 14 0 19 -2 13 -5z
m-48 -22 c3 -6 -3 -9 -14 -8 -11 0 -17 5 -15 9 7 11 22 10 29 -1z m-55 -16 c0
-8 -4 -15 -10 -15 -5 0 -7 7 -4 15 4 8 8 15 10 15 2 0 4 -7 4 -15z m-32 -30
c-3 -3 -9 2 -12 12 -6 14 -5 15 5 6 7 -7 10 -15 7 -18z m-168 -20 c-7 -9 -15
-13 -19 -10 -3 3 1 10 9 15 21 14 24 12 10 -5z m-47 -2 c-7 -2 -19 -2 -25 0
-7 3 -2 5 12 5 14 0 19 -2 13 -5z m152 -3 c3 -5 1 -10 -4 -10 -6 0 -11 5 -11
10 0 6 2 10 4 10 3 0 8 -4 11 -10z m-35 -4 c0 -2 -7 -7 -16 -10 -8 -3 -12 -2
-9 4 6 10 25 14 25 6z m-280 -36 c0 -5 -5 -10 -11 -10 -5 0 -7 5 -4 10 3 6 8
10 11 10 2 0 4 -4 4 -10z m38 -10 c-7 -10 -14 -18 -15 -16 -6 6 9 36 18 36 5
0 4 -9 -3 -20z m152 16 c0 -3 -4 -8 -10 -11 -5 -3 -10 -1 -10 4 0 6 5 11 10
11 6 0 10 -2 10 -4z m-235 -25 c3 -5 1 -12 -5 -16 -5 -3 -10 1 -10 9 0 18 6
21 15 7z m130 -1 c-3 -5 -11 -10 -16 -10 -6 0 -7 5 -4 10 3 6 11 10 16 10 6 0
7 -4 4 -10z m-449 -36 c18 -15 18 -15 -3 -5 -27 14 -36 14 -28 1 3 -5 2 -10
-4 -10 -13 0 -22 15 -14 24 11 10 28 7 49 -10z m104 -29 c0 -5 -5 -3 -10 5 -5
8 -10 20 -10 25 0 6 5 3 10 -5 5 -8 10 -19 10 -25z m73 20 c-3 -9 -8 -14 -10
-11 -3 3 -2 9 2 15 9 16 15 13 8 -4z m53 -7 c-10 -6 -22 -6 -26 -2 -5 5 3 10
18 11 22 1 24 0 8 -9z m-282 -47 c-6 -6 -24 19 -24 34 1 6 7 1 15 -9 8 -11 12
-22 9 -25z m71 30 c-3 -2 -17 -6 -32 -7 -20 -2 -23 0 -14 6 15 8 54 10 46 1z
m59 -6 c-4 -8 -8 -15 -10 -15 -2 0 -4 7 -4 15 0 8 4 15 10 15 5 0 7 -7 4 -15z"/>
<path d="M1711 2923 c-1 -7 -6 -13 -11 -13 -26 0 -109 -46 -105 -58 3 -9 -3
-10 -20 -6 -15 4 -32 1 -41 -7 -9 -7 -22 -14 -29 -15 -36 -5 -135 -58 -131
-70 3 -7 -3 -18 -12 -26 -15 -12 -16 -11 -4 4 9 11 10 18 2 23 -14 9 -69 -16
-66 -29 2 -6 1 -8 -1 -3 -3 4 -9 7 -15 7 -11 0 -181 -65 -209 -80 -9 -5 -33
-12 -53 -15 -20 -4 -38 -11 -41 -15 -3 -5 -23 -11 -45 -15 -22 -4 -42 -11 -46
-16 -3 -5 -16 -9 -29 -9 -13 0 -27 -5 -30 -10 -4 -6 -14 -9 -23 -8 -9 2 -16
-2 -15 -8 1 -7 -8 -9 -22 -6 -14 2 -33 1 -42 -3 -10 -5 -22 -9 -28 -10 -5 0
-19 -5 -30 -9 -43 -17 -75 -26 -200 -57 -72 -17 -133 -37 -137 -43 -6 -8 -8
-7 -8 1 0 9 -6 10 -22 3 -13 -5 -35 -11 -50 -14 l-28 -6 0 -134 c0 -134 0
-134 22 -128 13 3 33 12 46 20 18 12 20 17 10 23 -7 5 -8 9 -3 9 6 0 16 -5 21
-10 7 -7 26 -2 60 13 27 13 70 32 95 43 34 13 45 23 41 34 -5 12 -3 13 10 3
12 -10 23 -9 59 8 24 11 60 28 81 37 20 9 34 21 30 26 -3 5 2 7 11 3 17 -6
111 36 101 46 -3 3 3 3 15 0 12 -3 21 -1 21 4 0 5 18 16 41 23 23 8 43 20 46
27 3 7 10 13 17 12 18 -2 56 13 56 22 0 5 3 9 8 8 13 -2 52 13 52 20 0 4 16
13 35 20 19 7 33 17 30 22 -3 5 0 6 7 4 13 -5 86 29 131 60 18 13 18 13 -3 20
-12 4 -19 9 -17 11 2 3 16 0 30 -7 22 -10 32 -8 74 16 26 15 66 37 88 48 22
11 42 22 45 26 6 7 54 33 114 63 21 11 44 24 50 30 6 5 27 19 47 31 31 19 35
26 28 47 -4 14 -7 19 -8 13z m-67 -67 c-10 -8 -21 -12 -24 -10 -5 6 21 24 34
24 6 0 1 -6 -10 -14z m-74 -30 c0 -2 -7 -7 -16 -10 -8 -3 -12 -2 -9 4 6 10 25
14 25 6z m-147 -63 c-7 -2 -13 -14 -14 -26 0 -12 -3 -16 -6 -9 -7 18 4 42 19
41 10 0 10 -2 1 -6z m41 -8 c-10 -8 -23 -15 -28 -15 -6 0 -1 7 10 15 10 8 23
15 28 15 6 0 1 -7 -10 -15z m-133 -72 c-12 -20 -14 -14 -5 12 4 9 9 14 11 11
3 -2 0 -13 -6 -23z m-141 -16 c0 -2 -10 -12 -21 -23 -22 -19 -22 -19 -10 4 10
18 31 31 31 19z m35 -7 c3 -5 2 -10 -4 -10 -5 0 -13 5 -16 10 -3 6 -2 10 4 10
5 0 13 -4 16 -10z m-19 -29 c-4 -5 -1 -12 4 -14 6 -3 5 -4 -2 -3 -7 2 -22 -4
-33 -13 -14 -11 -12 -7 4 12 24 26 38 36 27 18z m-63 -36 c-3 -9 -8 -14 -10
-11 -3 3 -2 9 2 15 9 16 15 13 8 -4z m-158 -5 c3 -5 1 -10 -4 -10 -6 0 -11 5
-11 10 0 6 2 10 4 10 3 0 8 -4 11 -10z m89 -16 c8 -22 8 -24 -6 -24 -6 0 -8 3
-5 7 4 3 2 12 -4 20 -7 8 -8 13 -1 13 5 0 13 -7 16 -16z m-137 -1 c-4 -3 0
-14 8 -23 13 -14 12 -16 -4 -16 -12 0 -17 7 -15 21 3 25 3 25 11 25 3 0 3 -3
0 -7z m73 -17 c0 -2 -8 -10 -17 -17 -16 -13 -17 -12 -4 4 13 16 21 21 21 13z
m-242 -36 c-10 -6 -15 -19 -12 -32 4 -21 4 -21 -5 -3 -9 21 3 45 23 45 6 0 4
-5 -6 -10z m-73 -20 c-3 -5 -11 -10 -16 -10 -6 0 -7 5 -4 10 3 6 11 10 16 10
6 0 7 -4 4 -10z m193 -25 c-3 -28 -11 -24 -13 5 -1 11 2 20 7 20 4 0 7 -11 6
-25z m29 3 c-3 -8 -6 -5 -6 6 -1 11 2 17 5 13 3 -3 4 -12 1 -19z m48 12 c-3
-5 -12 -10 -18 -10 -7 0 -6 4 3 10 19 12 23 12 15 0z m-241 -26 c10 -25 -1
-29 -14 -5 -6 12 -7 21 -1 21 5 0 12 -7 15 -16z m-174 2 c0 -3 -4 -8 -10 -11
-5 -3 -10 -1 -10 4 0 6 5 11 10 11 6 0 10 -2 10 -4z m128 -21 c-3 -3 -9 2 -12
12 -6 14 -5 15 5 6 7 -7 10 -15 7 -18z m152 21 c0 -3 -4 -8 -10 -11 -5 -3 -10
-1 -10 4 0 6 5 11 10 11 6 0 10 -2 10 -4z m-346 -21 c3 -8 1 -15 -4 -15 -6 0
-10 7 -10 15 0 8 2 15 4 15 2 0 6 -7 10 -15z m31 5 c3 -5 1 -10 -4 -10 -6 0
-11 5 -11 10 0 6 2 10 4 10 3 0 8 -4 11 -10z m52 -22 c-3 -8 -6 -5 -6 6 -1 11
2 17 5 13 3 -3 4 -12 1 -19z m293 18 c0 -3 -4 -8 -10 -11 -5 -3 -10 -1 -10 4
0 6 5 11 10 11 6 0 10 -2 10 -4z m-178 -46 c-12 -11 -25 -20 -29 -20 -4 0 4
11 17 24 14 13 27 22 29 20 3 -2 -5 -13 -17 -24z m88 20 c8 -5 11 -10 5 -10
-5 0 -17 5 -25 10 -8 5 -10 10 -5 10 6 0 17 -5 25 -10z m-129 -23 c-10 -9 -11
-8 -5 6 3 10 9 15 12 12 3 -3 0 -11 -7 -18z m89 13 c0 -5 -5 -10 -11 -10 -5 0
-7 5 -4 10 3 6 8 10 11 10 2 0 4 -4 4 -10z m-440 -10 c0 -5 -5 -10 -11 -10 -5
0 -7 5 -4 10 3 6 8 10 11 10 2 0 4 -4 4 -10z m315 -10 c3 -5 1 -10 -4 -10 -6
0 -11 5 -11 10 0 6 2 10 4 10 3 0 8 -4 11 -10z m-279 -20 c0 -12 -4 -16 -9
-11 -5 5 -6 14 -3 20 10 15 12 14 12 -9z m170 -5 c-9 -9 -16 -13 -16 -8 0 12
22 34 28 28 2 -2 -3 -11 -12 -20z m-126 5 c0 -5 -5 -10 -11 -10 -5 0 -7 5 -4
10 3 6 8 10 11 10 2 0 4 -4 4 -10z m-87 -7 c-7 -2 -13 -12 -13 -20 0 -9 -3
-14 -6 -10 -10 10 4 37 18 36 10 0 10 -2 1 -6z m387 3 c0 -2 -8 -10 -17 -17
-16 -13 -17 -12 -4 4 13 16 21 21 21 13z m-206 -15 c3 -5 -1 -11 -9 -14 -9 -4
-12 -1 -8 9 6 16 10 17 17 5z m-114 -15 c0 -2 -7 -7 -16 -10 -8 -3 -12 -2 -9
4 6 10 25 14 25 6z m-96 -22 c3 -8 2 -12 -4 -9 -6 3 -10 10 -10 16 0 14 7 11
14 -7z m126 12 c0 -2 -7 -9 -15 -16 -13 -11 -14 -10 -9 4 5 14 24 23 24 12z
m103 -57 c-5 -5 -9 -1 -9 9 -1 9 -4 26 -8 37 -4 11 0 7 9 -9 10 -16 13 -32 8
-37z m92 43 c-3 -3 -11 0 -18 7 -9 10 -8 11 6 5 10 -3 15 -9 12 -12z m-265
-13 c0 -5 5 -7 12 -3 7 4 8 3 4 -4 -4 -6 -13 -9 -21 -5 -17 6 -20 23 -5 23 6
0 10 -5 10 -11z m135 1 c3 -5 1 -10 -4 -10 -6 0 -11 5 -11 10 0 6 2 10 4 10 3
0 8 -4 11 -10z m110 0 c3 -5 2 -10 -4 -10 -5 0 -13 5 -16 10 -3 6 -2 10 4 10
5 0 13 -4 16 -10z m-148 -41 c-16 -22 -16 -22 -14 -1 0 11 5 18 9 16 4 -3 8 0
8 7 0 7 3 10 6 6 3 -3 -1 -16 -9 -28z m-107 -4 c-7 -8 -17 -15 -22 -15 -11 0
14 29 26 30 5 0 3 -7 -4 -15z m21 -8 c-10 -9 -11 -8 -5 6 3 10 9 15 12 12 3
-3 0 -11 -7 -18z m129 19 c0 -3 -4 -8 -10 -11 -5 -3 -10 -1 -10 4 0 6 5 11 10
11 6 0 10 -2 10 -4z m-198 -18 c-19 -19 -14 -25 18 -23 16 1 27 -2 24 -6 -7
-12 -59 -3 -58 10 2 27 5 31 16 31 9 0 9 -3 0 -12z m128 -15 c0 -10 -4 -14 -8
-8 -4 6 -11 13 -16 18 -5 4 -2 7 7 7 10 0 17 -8 17 -17z m-105 -43 c3 -5 2
-10 -4 -10 -5 0 -13 5 -16 10 -3 6 -2 10 4 10 5 0 13 -4 16 -10z"/>
<path d="M8010 2770 c-101 -53 -126 -117 -130 -332 0 -5 -31 -8 -70 -8 l-70 0
0 -70 0 -70 70 0 70 0 2 -302 3 -303 98 -3 97 -3 0 306 0 305 85 0 85 0 0 70
0 70 -85 0 -85 0 0 70 c0 78 12 112 45 130 23 12 74 10 107 -4 18 -8 19 -3 33
105 7 57 2 59 -130 58 -68 0 -98 -4 -125 -19z"/>
<path d="M6085 2768 c-3 -7 -4 -254 -3 -548 l3 -535 97 -3 97 -3 3 238 c3 232
4 239 28 288 65 128 223 120 259 -12 6 -22 11 -140 11 -275 l0 -238 95 0 95 0
0 277 c0 322 -6 356 -76 426 -95 95 -273 88 -381 -16 l-33 -31 -2 220 -3 219
-93 3 c-68 2 -94 -1 -97 -10z"/>
<path d="M1665 2700 c-22 -16 -54 -36 -72 -45 -18 -9 -37 -23 -44 -31 -6 -8
-17 -14 -24 -14 -7 0 -18 -6 -24 -14 -9 -10 -8 -15 3 -19 8 -3 17 -1 20 6 3 7
3 2 0 -10 -3 -13 -1 -23 5 -23 6 0 11 -6 11 -12 0 -7 -11 0 -25 15 -29 30 -47
34 -65 12 -9 -11 -9 -15 -1 -15 7 0 9 -5 5 -11 -4 -8 -9 -7 -14 2 -6 9 -25 3
-77 -28 -37 -21 -67 -45 -65 -52 1 -7 -2 -10 -8 -6 -6 4 -38 -9 -71 -29 -33
-20 -65 -36 -71 -36 -5 0 -8 -7 -5 -14 4 -10 1 -13 -8 -9 -8 3 -36 -8 -62 -23
-27 -16 -57 -34 -68 -40 -11 -6 -19 -15 -18 -21 1 -6 -4 -17 -13 -23 -12 -11
-13 -10 -8 5 6 14 3 16 -16 10 -12 -4 -37 -17 -56 -30 -18 -13 -54 -31 -79
-41 -25 -11 -45 -21 -45 -24 0 -3 -47 -27 -105 -55 -62 -30 -102 -55 -100 -62
2 -7 -1 -15 -7 -19 -7 -4 -8 -3 -4 4 4 7 1 12 -8 12 -20 0 -29 -17 -14 -24 7
-3 3 -3 -8 -1 -12 3 -44 -6 -73 -20 -44 -22 -50 -29 -41 -45 7 -13 6 -21 -4
-29 -11 -9 -12 -6 -8 14 5 27 -7 32 -36 15 -9 -5 -28 -14 -42 -20 -14 -5 -33
-14 -42 -20 -10 -5 -26 -14 -35 -19 -15 -7 -18 -25 -21 -116 -2 -87 0 -106 10
-98 7 6 45 27 83 48 71 38 173 94 274 152 31 17 55 36 54 41 -1 6 7 8 17 5 11
-3 20 0 20 6 0 6 6 11 14 11 7 0 25 9 38 20 14 10 28 17 30 14 3 -2 11 2 18
11 7 8 19 15 26 15 8 0 14 5 14 10 0 6 4 10 9 10 5 0 45 23 88 50 43 28 85 53
93 57 8 3 34 19 57 35 23 15 45 28 48 28 9 0 99 63 103 73 2 4 8 7 13 7 20 0
89 53 89 69 0 10 3 12 8 5 9 -14 193 106 185 120 -3 5 -1 6 6 2 15 -10 113 62
104 76 -3 7 -1 8 5 4 6 -4 29 5 52 19 39 25 40 26 40 85 0 33 -3 60 -7 60 -5
-1 -26 -14 -48 -30z m8 -44 c4 -10 1 -13 -7 -10 -7 3 -20 -2 -29 -10 -9 -9
-19 -16 -24 -16 -9 0 38 48 48 49 4 1 9 -6 12 -13z m-83 -30 c0 -3 -4 -8 -10
-11 -5 -3 -10 -1 -10 4 0 6 5 11 10 11 6 0 10 -2 10 -4z m85 -6 c3 -6 -1 -7
-9 -4 -18 7 -21 14 -7 14 6 0 13 -4 16 -10z m-59 -36 c-9 -8 -16 -20 -16 -26
0 -6 -3 -9 -6 -6 -8 9 14 48 27 48 6 0 3 -7 -5 -16z m-39 -25 c0 -21 -3 -26
-9 -16 -4 9 -5 22 -2 31 9 23 11 20 11 -15z m-83 -24 c-4 -8 -1 -15 5 -15 6 0
11 -5 11 -12 0 -8 -6 -7 -16 4 -9 9 -13 21 -10 27 10 16 16 13 10 -4z m-24
-19 c0 -2 -7 -7 -16 -10 -8 -3 -12 -2 -9 4 6 10 25 14 25 6z m-115 -37 c11
-16 1 -19 -13 -3 -7 8 -8 14 -3 14 5 0 13 -5 16 -11z m52 -11 c-3 -8 -6 -5 -6
6 -1 11 2 17 5 13 3 -3 4 -12 1 -19z m-70 -14 c2 -5 -4 -19 -12 -29 -15 -19
-16 -19 -5 4 10 19 9 26 -1 33 -12 8 -11 9 0 6 8 -3 16 -9 18 -14z m105 -6
c-7 -7 -12 -8 -12 -2 0 6 3 14 7 17 3 4 9 5 12 2 2 -3 -1 -11 -7 -17z m-60
-23 c-2 -14 -8 -23 -12 -20 -10 6 -1 45 10 45 4 0 5 -11 2 -25z m-94 -10 c-3
-3 -9 2 -12 12 -6 14 -5 15 5 6 7 -7 10 -15 7 -18z m62 -20 c0 -8 -4 -15 -10
-15 -5 0 -10 7 -10 15 0 8 5 15 10 15 6 0 10 -7 10 -15z m-128 -17 c-7 -7 -12
-8 -12 -2 0 14 12 26 19 19 2 -3 -1 -11 -7 -17z m63 -17 c-8 -17 -18 -31 -21
-31 -3 0 -3 4 0 9 3 4 10 21 16 36 6 15 13 25 16 22 3 -3 -2 -19 -11 -36z
m-115 -26 c0 -8 -2 -15 -4 -15 -2 0 -6 7 -10 15 -3 8 -1 15 4 15 6 0 10 -7 10
-15z m33 -5 c-3 -12 -8 -19 -11 -16 -5 6 5 36 12 36 2 0 2 -9 -1 -20z m34 0
c1 -11 -2 -22 -8 -25 -10 -7 -13 28 -2 38 9 9 9 10 10 -13z m-174 -40 c3 -11
1 -20 -4 -20 -5 0 -9 9 -9 20 0 11 2 20 4 20 2 0 6 -9 9 -20z m127 0 c0 -5 -4
-10 -10 -10 -5 0 -10 5 -10 10 0 6 5 10 10 10 6 0 10 -4 10 -10z m-117 -47
c-7 -3 -13 -12 -14 -21 0 -11 -2 -13 -6 -4 -6 15 17 46 26 36 3 -4 0 -9 -6
-11z m-53 -8 c0 -8 -4 -15 -10 -15 -5 0 -10 7 -10 15 0 8 5 15 10 15 6 0 10
-7 10 -15z m-50 -25 c-6 -12 -14 -20 -17 -17 -2 3 1 14 8 26 17 26 24 19 9 -9z
m-50 -13 c0 -4 -6 -2 -14 5 -8 7 -12 17 -9 22 5 8 23 -12 23 -27z m180 23 c0
-5 -4 -10 -10 -10 -5 0 -10 5 -10 10 0 6 5 10 10 10 6 0 10 -4 10 -10z m-270
-67 c-11 -17 -11 -17 -6 0 3 10 6 24 7 30 0 9 2 9 5 0 3 -7 0 -20 -6 -30z m85
7 c3 -5 1 -10 -4 -10 -6 0 -11 5 -11 10 0 6 2 10 4 10 3 0 8 -4 11 -10z m-173
-47 c-6 -3 -9 -10 -6 -15 4 -7 2 -8 -5 -4 -9 6 -9 11 0 22 6 8 15 12 18 8 3
-4 0 -9 -7 -11z m53 -1 c-3 -3 -11 0 -18 7 -9 10 -8 11 6 5 10 -3 15 -9 12
-12z m25 -12 c-8 -5 -19 -9 -25 -9 -5 0 -4 3 3 6 6 2 12 12 12 21 0 13 3 13
12 4 10 -10 10 -15 -2 -22z m75 1 c-3 -6 -11 -11 -16 -11 -5 0 -4 6 3 14 14
16 24 13 13 -3z m-218 -6 c0 -8 -4 -15 -9 -15 -10 0 -11 14 -1 23 9 10 10 9
10 -8z m180 -2 c0 -10 -6 -24 -14 -31 -16 -16 -16 -12 -3 22 11 30 17 33 17 9z
m-127 -36 c0 -4 -7 -2 -15 7 -8 8 -15 21 -15 28 1 14 30 -20 30 -35z m-110 13
c0 -5 -5 -10 -11 -10 -5 0 -7 5 -4 10 3 6 8 10 11 10 2 0 4 -4 4 -10z m23 -5
c-3 -9 -8 -14 -10 -11 -3 3 -2 9 2 15 9 16 15 13 8 -4z m108 -18 c-10 -9 -11
-8 -5 6 3 10 9 15 12 12 3 -3 0 -11 -7 -18z m-40 -31 c18 -20 8 -25 -11 -6
-13 13 -17 26 -13 37 7 16 8 16 11 -2 2 -11 8 -24 13 -29z m-86 24 c7 -12 -2
-12 -30 0 -19 8 -19 9 2 9 12 1 25 -3 28 -9z m32 -9 c0 -11 -5 -18 -9 -15 -4
3 -5 11 -1 19 7 21 12 19 10 -4z m123 -1 c0 -5 -5 -10 -11 -10 -5 0 -7 5 -4
10 3 6 8 10 11 10 2 0 4 -4 4 -10z m-220 -67 c-11 -17 -11 -17 -6 0 3 10 7 31
7 45 l2 27 4 -27 c2 -15 -1 -35 -7 -45z m-76 7 c-6 -6 -10 -3 -10 10 0 13 4
16 10 10 7 -7 7 -13 0 -20z m54 0 c-7 -11 -16 -20 -20 -20 -11 0 -10 9 5 25
18 21 29 18 15 -5z m-158 -24 c0 -3 -4 -8 -10 -11 -5 -3 -10 -1 -10 4 0 6 5
11 10 11 6 0 10 -2 10 -4z m205 -6 c-3 -5 -12 -10 -18 -10 -7 0 -6 4 3 10 19
12 23 12 15 0z m-135 -14 c0 -3 -4 -8 -10 -11 -5 -3 -10 -1 -10 4 0 6 5 11 10
11 6 0 10 -2 10 -4z m-47 -21 c-3 -9 -8 -14 -10 -11 -3 3 -2 9 2 15 9 16 15
13 8 -4z m-156 -41 c-3 -4 -1 -16 5 -28 10 -20 9 -20 -7 -4 -15 14 -14 38 2
38 4 0 3 -3 0 -6z m208 -4 c-3 -5 -12 -10 -18 -10 -7 0 -6 4 3 10 19 12 23 12
15 0z m-55 -35 c0 -8 -4 -15 -10 -15 -5 0 -7 7 -4 15 4 8 8 15 10 15 2 0 4 -7
4 -15z m-158 -37 c-7 -7 -12 -8 -12 -2 0 14 12 26 19 19 2 -3 -1 -11 -7 -17z
m68 -12 c0 -3 -4 -8 -10 -11 -5 -3 -10 -1 -10 4 0 6 5 11 10 11 6 0 10 -2 10
-4z m-66 -32 c3 -8 2 -12 -4 -9 -6 3 -10 10 -10 16 0 14 7 11 14 -7z"/>
<path d="M2250 2190 l0 -510 100 0 100 0 2 223 3 222 173 3 173 2 -3 78 -3 77
-173 3 -173 2 3 123 3 122 180 5 180 5 3 78 3 77 -286 0 -285 0 0 -510z"/>
<path d="M1630 2484 c-156 -114 -189 -137 -345 -241 -88 -59 -162 -109 -165
-111 -2 -2 2 -7 10 -12 12 -8 13 -11 2 -22 -11 -11 -13 -10 -10 2 2 9 -4 15
-17 15 -11 0 -19 -6 -17 -13 1 -8 -2 -11 -7 -8 -5 4 -31 -8 -58 -26 -26 -17
-60 -40 -75 -50 -15 -10 -30 -18 -33 -18 -3 0 -46 -26 -95 -57 -137 -89 -174
-111 -252 -154 -40 -22 -78 -46 -84 -54 -6 -8 -13 -12 -16 -9 -3 3 -21 -4 -39
-15 l-33 -20 37 2 c20 1 39 6 43 9 4 4 15 3 25 -3 13 -6 25 -6 39 1 13 7 20 7
20 1 0 -6 21 2 47 18 27 15 59 34 73 42 13 8 30 19 37 26 7 6 22 15 33 18 11
3 20 11 20 16 0 5 6 9 13 9 7 0 23 9 35 20 12 12 22 18 22 15 0 -3 32 16 71
42 70 47 71 47 50 64 -12 10 -21 21 -21 25 0 4 11 -3 25 -16 l24 -23 35 27
c19 14 37 26 40 26 5 0 89 55 111 72 6 5 42 30 80 57 39 27 78 56 87 64 9 9
18 13 20 11 3 -2 15 7 28 21 13 14 27 25 32 25 5 0 23 13 41 29 17 16 55 45
82 63 28 19 49 39 48 46 -2 6 3 9 10 7 6 -3 24 6 39 20 15 14 31 25 36 25 17
0 42 37 42 63 0 15 -3 27 -7 26 -5 0 -42 -25 -83 -55z m15 -33 c-3 -6 -14 -10
-23 -10 -15 1 -15 2 1 6 9 2 17 9 17 15 0 6 3 9 6 5 3 -3 3 -10 -1 -16z m-106
-72 c-31 -31 -44 -38 -52 -29 -9 8 -8 10 5 5 11 -4 18 0 22 12 5 14 49 51 64
53 1 0 -16 -18 -39 -41z m-64 -39 c3 -5 2 -10 -4 -10 -5 0 -13 5 -16 10 -3 6
-2 10 4 10 5 0 13 -4 16 -10z m-32 -25 c-3 -9 -8 -14 -10 -11 -3 3 -2 9 2 15
9 16 15 13 8 -4z m-88 -72 c-9 -8 -18 -13 -21 -10 -8 8 19 36 29 30 4 -2 0
-11 -8 -20z m-35 -13 c0 -5 -5 -10 -11 -10 -5 0 -7 5 -4 10 3 6 8 10 11 10 2
0 4 -4 4 -10z m-63 -45 c-7 -13 -14 -20 -15 -14 -2 5 2 16 8 24 18 21 20 18 7
-10z m-95 -57 c-7 -7 -12 -8 -12 -2 0 14 12 26 19 19 2 -3 -1 -11 -7 -17z m48
2 c0 -5 -5 -10 -11 -10 -5 0 -7 5 -4 10 3 6 8 10 11 10 2 0 4 -4 4 -10z m-190
-120 c0 -11 -4 -20 -9 -20 -5 0 -7 9 -4 20 3 11 7 20 9 20 2 0 4 -9 4 -20z
m-70 -62 c0 -6 -7 -5 -15 2 -8 7 -15 17 -15 22 0 6 7 5 15 -2 8 -7 15 -17 15
-22z m-25 -8 c3 -5 2 -10 -4 -10 -5 0 -13 5 -16 10 -3 6 -2 10 4 10 5 0 13 -4
16 -10z m-107 -43 c-13 -15 -38 -18 -38 -6 0 8 18 17 38 18 10 1 10 -2 0 -12z
m-93 -77 c3 -5 1 -10 -4 -10 -6 0 -11 5 -11 10 0 6 2 10 4 10 3 0 8 -4 11 -10z
m-55 -10 c0 -5 -2 -10 -4 -10 -3 0 -8 5 -11 10 -3 6 -1 10 4 10 6 0 11 -4 11
-10z m15 -20 c-10 -11 -22 -20 -28 -20 -5 0 1 9 14 20 31 25 37 25 14 0z m-95
-30 c0 -5 -2 -10 -4 -10 -3 0 -8 5 -11 10 -3 6 -1 10 4 10 6 0 11 -4 11 -10z
m-22 -31 c-3 -8 -7 -3 -11 10 -4 17 -3 21 5 13 5 -5 8 -16 6 -23z"/>
<path d="M3265 2431 c-41 -18 -89 -66 -108 -108 -18 -40 -27 -25 -27 42 l0 65
-85 0 -85 0 0 -375 0 -375 95 0 95 0 0 183 c0 324 40 406 189 395 l62 -4 -3
95 -3 96 -45 3 c-28 1 -61 -5 -85 -17z"/>
<path d="M3670 2436 c-30 -7 -71 -20 -91 -28 l-37 -16 3 -69 c1 -37 3 -74 4
-80 1 -8 19 -3 54 15 162 88 331 54 339 -68 l3 -45 -135 -6 c-188 -9 -267 -41
-318 -127 -23 -40 -27 -58 -27 -124 0 -69 3 -80 30 -119 17 -24 53 -55 85 -73
49 -27 64 -31 135 -31 94 0 154 23 203 79 17 20 34 36 36 36 3 0 6 -21 8 -47
l3 -48 84 0 84 0 -2 250 c-2 295 -13 360 -67 424 -19 22 -50 47 -67 56 -75 35
-222 44 -327 21z m273 -459 c-6 -104 -72 -171 -170 -171 -91 0 -142 48 -123
114 23 81 83 106 255 105 l40 0 -2 -48z"/>
<path d="M5525 2436 c-48 -15 -121 -62 -129 -82 -10 -27 -26 -4 -26 37 l0 39
-90 0 -90 0 0 -375 0 -375 95 0 95 0 0 203 c0 265 16 333 92 390 37 28 128 29
159 2 45 -41 49 -68 49 -340 l0 -255 101 0 101 0 -4 288 c-4 327 -8 345 -84
418 -62 61 -171 81 -269 50z"/>
<path d="M7180 2436 c-112 -32 -195 -101 -243 -205 -30 -62 -32 -73 -32 -181
0 -107 2 -119 29 -174 33 -67 103 -143 156 -167 19 -10 48 -23 64 -30 45 -22
219 -18 289 6 31 10 57 23 57 27 0 4 6 8 14 8 24 0 103 87 130 143 78 161 46
369 -74 481 -100 94 -253 130 -390 92z m219 -174 c20 -16 46 -49 59 -73 21
-39 23 -55 19 -139 -5 -127 -32 -182 -109 -221 -95 -49 -206 1 -242 109 -45
129 -25 244 52 312 50 44 67 50 136 44 36 -2 60 -12 85 -32z"/>
<path d="M8565 2436 c-119 -37 -193 -124 -229 -267 -20 -82 -20 -154 0 -233
31 -119 81 -184 180 -234 113 -57 321 -52 442 10 20 10 22 19 22 85 0 78 -4
84 -50 60 -69 -35 -126 -50 -199 -50 -93 0 -149 25 -185 81 -30 48 -43 102
-24 102 7 1 117 0 244 0 127 0 238 2 247 6 23 8 22 86 -1 185 -36 150 -103
223 -237 258 -53 14 -160 13 -210 -3z m187 -145 c37 -14 79 -73 85 -121 l6
-40 -167 0 -168 0 7 33 c26 117 126 171 237 128z"/>
<path d="M9487 2436 c-39 -17 -101 -79 -121 -119 l-16 -32 0 73 0 72 -90 0
-90 0 0 -375 0 -376 98 3 97 3 6 220 c4 196 7 225 26 267 30 67 70 89 153 87
l65 -3 0 95 0 94 -50 2 c-27 1 -63 -4 -78 -11z"/>
<path d="M4290 2169 c0 -217 3 -273 17 -323 9 -34 21 -65 25 -71 5 -5 18 -23
29 -38 38 -51 94 -72 189 -71 96 0 154 21 204 73 35 37 46 32 46 -20 l0 -39
90 0 90 0 0 375 0 375 -94 0 -94 0 -4 -232 c-4 -208 -7 -238 -25 -278 -31 -67
-87 -110 -145 -110 -42 0 -95 32 -111 68 -8 18 -14 114 -17 287 l-5 260 -97 3
-98 3 0 -262z"/>
<path d="M1675 2360 c-16 -16 -35 -30 -42 -30 -15 0 -16 -9 -3 -30 8 -12 11
-13 19 -1 5 8 11 9 15 3 3 -5 -1 -13 -10 -16 -8 -3 -12 -10 -9 -16 3 -5 2 -10
-3 -10 -6 0 -13 11 -16 25 -4 14 -11 25 -17 25 -6 0 -8 -7 -5 -16 3 -9 3 -21
-1 -27 -14 -22 -12 -42 3 -54 10 -7 12 -13 4 -18 -5 -3 -7 -11 -4 -17 4 -7 2
-8 -5 -4 -6 4 -8 12 -5 18 4 6 -1 17 -12 25 -16 12 -17 15 -4 23 8 5 11 10 6
10 -5 0 -3 7 4 15 7 9 10 18 6 22 -9 9 -47 -28 -39 -40 3 -6 1 -7 -6 -3 -10 6
-46 -19 -131 -90 -14 -12 -54 -44 -90 -72 -36 -27 -64 -55 -63 -61 2 -5 -4 -8
-12 -5 -8 4 -15 1 -15 -5 0 -6 -5 -11 -11 -11 -9 0 -85 -55 -99 -71 -3 -3 -23
-17 -45 -31 -56 -36 -97 -73 -89 -81 4 -4 16 1 27 10 19 18 20 17 7 -7 -18
-35 -19 -36 -34 -15 -12 17 -16 16 -69 -24 -31 -22 -60 -41 -64 -41 -4 -1 -21
-12 -38 -26 l-30 -25 30 5 c17 2 34 5 38 5 5 1 6 5 3 10 -3 5 1 12 10 15 12 5
14 1 8 -16 -6 -21 -5 -22 11 -8 11 9 16 10 11 3 -4 -7 -2 -13 3 -13 6 0 11 5
11 12 0 9 3 9 12 0 14 -14 42 -16 33 -2 -3 6 1 7 9 4 10 -4 16 -1 16 7 0 8 5
6 13 -5 19 -26 65 -12 70 22 4 25 4 25 6 -4 1 -30 2 -31 46 -29 25 1 48 5 52
9 3 3 12 1 20 -6 17 -14 60 6 66 31 2 9 3 6 2 -7 -1 -12 2 -25 7 -29 16 -9 29
19 22 47 -5 24 -5 24 10 5 9 -13 11 -24 5 -31 -7 -8 -1 -14 17 -18 15 -4 30
-4 33 1 8 11 42 13 35 2 -3 -5 2 -9 10 -9 8 0 19 7 24 16 8 15 10 15 15 0 7
-18 37 -22 37 -5 0 5 5 7 10 4 17 -11 60 -16 60 -8 0 5 10 14 23 22 20 13 21
13 8 -2 -7 -10 -11 -18 -7 -18 24 -5 33 -3 47 13 19 21 37 25 20 5 -6 -8 -8
-17 -4 -20 11 -12 43 -8 43 5 0 9 3 9 12 0 7 -7 16 -12 20 -12 4 0 8 158 8
350 0 193 -4 350 -8 350 -5 0 -21 -13 -37 -30z m35 -10 c0 -5 -5 -10 -11 -10
-5 0 -7 5 -4 10 3 6 8 10 11 10 2 0 4 -4 4 -10z m-33 -32 c-3 -7 -5 -2 -5 12
0 14 2 19 5 13 2 -7 2 -19 0 -25z m33 -18 c0 -5 -5 -10 -11 -10 -5 0 -7 5 -4
10 3 6 8 10 11 10 2 0 4 -4 4 -10z m-40 -90 c0 -5 -4 -10 -10 -10 -5 0 -10 5
-10 10 0 6 5 10 10 10 6 0 10 -4 10 -10z m-93 -25 c0 -8 -4 -12 -9 -9 -5 3 -6
10 -3 15 9 13 12 11 12 -6z m127 -3 c-6 -4 -16 -16 -21 -27 -10 -18 -11 -17
-10 7 1 14 5 24 9 22 4 -2 10 1 13 7 4 5 10 8 13 4 4 -3 2 -9 -4 -13z m-54 -2
c0 -5 -4 -10 -10 -10 -5 0 -10 5 -10 10 0 6 5 10 10 10 6 0 10 -4 10 -10z
m-96 -45 c-4 -8 -11 -15 -16 -15 -6 0 -5 6 2 15 7 8 14 15 16 15 2 0 1 -7 -2
-15z m-111 -28 c4 3 2 -9 -3 -28 -10 -33 -40 -73 -40 -52 0 6 7 16 15 23 16
14 21 50 6 50 -5 0 -11 -6 -14 -12 -3 -7 -4 -3 -4 9 1 17 5 20 18 13 9 -5 19
-7 22 -3z m264 -64 c-2 -16 -4 -3 -4 27 0 30 2 43 4 28 2 -16 2 -40 0 -55z
m-340 39 c-10 -10 -17 -24 -17 -31 0 -7 -5 -9 -11 -6 -7 5 -2 16 12 31 26 28
40 33 16 6z m100 -22 c-21 -24 -25 -38 -22 -77 2 -41 1 -45 -11 -29 -12 17
-14 17 -29 2 -9 -9 -20 -16 -25 -16 -5 0 -7 -8 -4 -17 5 -17 5 -17 -6 0 -6 9
-15 15 -20 12 -4 -3 -6 4 -3 15 3 11 9 20 14 20 5 0 6 -7 2 -16 -5 -14 -3 -15
15 -5 12 6 26 19 31 29 9 15 12 15 22 2 8 -12 9 -9 5 13 -6 26 4 56 28 83 24
28 26 12 3 -16z m123 6 c0 -3 -4 -8 -10 -11 -5 -3 -10 -1 -10 4 0 6 5 11 10
11 6 0 10 -2 10 -4z m87 -48 c-2 -13 -4 -5 -4 17 -1 22 1 32 4 23 2 -10 2 -28
0 -40z m-159 11 c-3 -8 -7 -3 -11 10 -4 17 -3 21 5 13 5 -5 8 -16 6 -23z m90
7 c-2 -22 -8 -24 -51 -17 -5 0 -5 6 -1 12 5 8 9 8 14 -1 9 -15 30 -4 30 16 0
8 2 14 5 14 3 0 4 -11 3 -24z m-285 0 c4 -10 1 -13 -9 -9 -7 3 -14 -1 -14 -8
0 -7 -3 -9 -6 -6 -4 4 -1 13 6 22 15 19 17 19 23 1z m167 4 c0 -5 -5 -10 -11
-10 -5 0 -7 5 -4 10 3 6 8 10 11 10 2 0 4 -4 4 -10z m150 -35 c-17 -31 -19
-29 -13 13 4 24 9 30 16 23 7 -7 7 -18 -3 -36z m-273 15 c1 -11 -2 -22 -8 -25
-7 -5 -7 18 0 43 3 8 7 -1 8 -18z m126 -15 c-3 -9 -8 -14 -10 -11 -3 3 -2 9 2
15 9 16 15 13 8 -4z m-237 -31 c-3 -9 -6 -18 -6 -20 0 -2 -5 -4 -11 -4 -8 0
-9 4 0 13 6 8 8 17 4 20 -3 4 -1 7 6 7 8 0 11 -6 7 -16z m74 6 c0 -5 -5 -10
-11 -10 -5 0 -7 5 -4 10 3 6 8 10 11 10 2 0 4 -4 4 -10z m198 -25 c-3 -30 -11
-23 -13 9 0 14 3 22 7 20 4 -3 7 -16 6 -29z m-234 -1 c3 -8 2 -12 -4 -9 -6 3
-10 10 -10 16 0 14 7 11 14 -7z m280 0 c3 -8 2 -12 -4 -9 -6 3 -10 10 -10 16
0 14 7 11 14 -7z m34 -15 c-1 -17 -4 -25 -8 -18 -7 10 -2 49 5 49 2 0 3 -14 3
-31z m50 6 c-3 -3 -9 2 -12 12 -6 14 -5 15 5 6 7 -7 10 -15 7 -18z m49 -7 c-3
-8 -6 -5 -6 6 -1 11 2 17 5 13 3 -3 4 -12 1 -19z m-539 -2 c-7 -8 -15 -12 -17
-11 -5 6 10 25 20 25 5 0 4 -6 -3 -14z m29 -11 c-7 -13 -14 -20 -15 -14 -2 5
2 16 8 24 18 21 20 18 7 -10z m91 -10 c-3 -3 -9 2 -12 12 -6 14 -5 15 5 6 7
-7 10 -15 7 -18z m393 -20 c-9 -30 -9 -30 -8 7 1 20 5 34 9 30 4 -4 3 -21 -1
-37z m-31 29 c0 -3 -7 -12 -15 -20 -16 -17 -18 -14 -9 10 6 15 24 23 24 10z
m-505 -24 c-3 -5 -12 -10 -18 -10 -7 0 -6 4 3 10 19 12 23 12 15 0z m377 -19
c2 -17 1 -28 -4 -25 -8 5 -12 54 -4 54 2 0 6 -13 8 -29z m48 23 c0 -3 -7 -12
-15 -21 -20 -19 -32 -10 -14 11 14 15 29 21 29 10z m-265 -14 c3 -5 1 -10 -4
-10 -6 0 -11 5 -11 10 0 6 2 10 4 10 3 0 8 -4 11 -10z m45 -20 c-6 -12 -14
-20 -17 -17 -2 3 1 14 8 26 7 11 15 18 17 16 2 -2 -2 -13 -8 -25z m257 0 c-1
-10 -5 -17 -9 -14 -4 3 -4 12 -1 21 5 12 3 14 -7 8 -9 -5 -11 -4 -6 4 10 16
25 4 23 -19z m-494 0 c3 -11 1 -18 -4 -14 -5 3 -9 12 -9 20 0 20 7 17 13 -6z
m157 -15 c0 -8 -2 -15 -4 -15 -2 0 -6 7 -10 15 -3 8 -1 15 4 15 6 0 10 -7 10
-15z m437 -7 c-3 -8 -6 -5 -6 6 -1 11 2 17 5 13 3 -3 4 -12 1 -19z m-544 -5
c-6 -16 -3 -15 17 2 24 21 20 5 -8 -27 -7 -9 -11 -21 -8 -26 8 -13 -3 -42 -16
-42 -7 0 -7 4 0 13 5 6 8 28 7 47 -2 33 1 50 10 50 3 0 2 -8 -2 -17z m495 -18
c-3 -3 -9 2 -12 12 -6 14 -5 15 5 6 7 -7 10 -15 7 -18z m-578 5 c0 -5 -4 -10
-10 -10 -5 0 -10 5 -10 10 0 6 5 10 10 10 6 0 10 -4 10 -10z m233 -11 c4 -16
3 -18 -9 -8 -16 13 -19 29 -5 29 5 0 11 -9 14 -21z m50 6 c-3 -9 -8 -14 -10
-11 -3 3 -2 9 2 15 9 16 15 13 8 -4z m54 -7 c-3 -8 -6 -5 -6 6 -1 11 2 17 5
13 3 -3 4 -12 1 -19z m63 12 c0 -5 -5 -10 -11 -10 -5 0 -7 5 -4 10 3 6 8 10
11 10 2 0 4 -4 4 -10z m43 -10 c3 -11 1 -18 -4 -14 -5 3 -9 12 -9 20 0 20 7
17 13 -6z m-387 -14 c0 -13 -4 -22 -8 -20 -4 3 -12 -4 -18 -13 -9 -15 -10 -14
-4 6 5 20 23 49 30 51 1 0 1 -11 0 -24z m252 -22 c-14 -14 -15 -14 -10 11 3
19 8 23 15 16 8 -8 7 -16 -5 -27z m-173 9 c4 9 12 17 18 17 5 0 2 -9 -8 -20
-17 -19 -17 -21 -2 -38 19 -21 22 -32 7 -32 -5 0 -10 5 -10 11 0 6 -9 22 -20
36 -11 14 -20 30 -20 36 0 6 6 2 14 -9 14 -18 15 -18 21 -1z m55 2 c0 -8 -4
-15 -10 -15 -5 0 -7 7 -4 15 4 8 8 15 10 15 2 0 4 -7 4 -15z m380 5 c0 -5 -5
-10 -11 -10 -5 0 -7 5 -4 10 3 6 8 10 11 10 2 0 4 -4 4 -10z m-667 -7 c-7 -2
-13 -11 -13 -19 0 -9 -5 -12 -10 -9 -13 8 6 35 24 34 7 0 6 -2 -1 -6z m451
-17 c-6 -15 -24 -23 -24 -11 0 8 24 34 28 30 1 -1 0 -10 -4 -19z m247 -10 c-6
-14 -16 -26 -23 -26 -9 0 -10 3 -2 8 6 4 15 17 19 30 4 13 9 22 11 19 3 -2 0
-16 -5 -31z m-116 14 c3 -5 2 -10 -4 -10 -5 0 -13 5 -16 10 -3 6 -2 10 4 10 5
0 13 -4 16 -10z m66 -33 c-10 -9 -11 -8 -5 6 3 10 9 15 12 12 3 -3 0 -11 -7
-18z m-280 -18 c-5 -13 -10 -19 -10 -12 -1 15 10 45 15 40 3 -2 0 -15 -5 -28z
m356 -11 c-3 -8 -6 -5 -6 6 -1 11 2 17 5 13 3 -3 4 -12 1 -19z"/>
</g>
</svg>